<svg width="60" height="64" viewBox="0 0 60 64" fill="none" xmlns="http://www.w3.org/2000/svg">
<path d="M54.0422 11.7406C56.6408 13.7258 59.09 17.9546 59.444 21.1925L59.4497 21.2447C59.4914 21.6283 60 26.4218 60 31.966C60 37.5401 59.4978 42.2495 59.4506 42.68L59.4432 42.7472C59.0843 46.005 56.6758 50.2624 53.992 52.2295L53.9832 52.236C53.8596 52.3259 49.8985 55.2044 45 58.0829C40.4257 60.734 36.3058 62.6027 35.5754 62.9289C35.499 62.963 35.4232 62.9978 35.3469 63.032C33.9053 63.6773 31.9527 64 30 64C28.0891 64 26.1109 63.6685 24.5975 63.0056L24.4816 62.9547C23.9398 62.7174 19.651 60.8159 15 58.0829C10.3646 55.359 6.56862 52.6352 6.06948 52.2742C6.03118 52.2465 5.99538 52.2201 5.95782 52.1914C3.35917 50.2062 0.910009 45.9773 0.555948 42.7395L0.550286 42.6873C0.508603 42.3037 0 37.5102 0 31.966C0 26.3918 0.50223 21.6824 0.549445 21.252L0.556792 21.1848C0.913675 17.9455 3.29693 13.7179 5.96241 11.7361C5.99687 11.7105 6.03022 11.6865 6.06529 11.6617C6.54697 11.321 10.3513 8.64874 15 5.91711C19.5743 3.26599 23.6942 1.39732 24.4246 1.07108C24.501 1.03696 24.5768 1.00218 24.6531 0.967994C26.0947 0.322665 28.0473 0 30 0C31.9108 0 33.8891 0.331462 35.4025 0.994386L35.5184 1.04529C36.0602 1.28265 40.349 3.18411 45 5.91711C49.6354 8.57762 53.4314 11.2971 53.9305 11.6578C53.9688 11.6855 54.0046 11.7119 54.0422 11.7406Z" fill="#2DC36A"/>
<path fill-rule="evenodd" clip-rule="evenodd" d="M16.359 17.91C15.7147 17.91 15.1924 18.4323 15.1924 19.0767C15.1924 19.721 15.7147 20.2433 16.359 20.2433H17.5814V44.8328C17.5814 45.2451 17.799 45.6267 18.1537 45.8367C18.5085 46.0468 18.9477 46.054 19.3092 45.8557L22.9291 43.8699L25.6929 45.7908C26.0796 46.0595 26.5899 46.0695 26.9867 45.8161L30.0126 43.8837L33.0396 45.8162C33.4364 46.0695 33.9465 46.0595 34.3331 45.7909L37.0981 43.8698L40.7182 45.8557C41.0796 46.054 41.5189 46.0468 41.8736 45.8367C42.2284 45.6267 42.446 45.2451 42.446 44.8328V20.2433H43.6411C44.2854 20.2433 44.8078 19.721 44.8078 19.0767C44.8078 18.4323 44.2854 17.91 43.6411 17.91L16.359 17.91ZM40.1126 20.2433L19.9147 20.2433V42.8621L22.4404 41.4766C22.8286 41.2637 23.3038 41.2888 23.6673 41.5415L26.3861 43.4311L29.3845 41.5162C29.7674 41.2717 30.2574 41.2717 30.6403 41.5161L33.64 43.4312L36.3602 41.5414C36.7237 41.2888 37.1988 41.2637 37.5869 41.4766L40.1126 42.8621V20.2433ZM24.9746 25.8075C24.3303 25.8075 23.8079 26.3298 23.8079 26.9741C23.8079 27.6185 24.3303 28.1408 24.9746 28.1408L35.0259 28.1408C35.6702 28.1408 36.1926 27.6185 36.1926 26.9741C36.1926 26.3298 35.6702 25.8075 35.0259 25.8075L24.9746 25.8075ZM23.8079 33.4357C23.8079 32.7914 24.3303 32.2691 24.9746 32.2691L29.2823 32.2691C29.9266 32.2691 30.449 32.7914 30.449 33.4357C30.449 34.0801 29.9266 34.6024 29.2823 34.6024L24.9746 34.6024C24.3303 34.6024 23.8079 34.0801 23.8079 33.4357Z" fill="white"/>
</svg>
