<svg width="60" height="64" viewBox="0 0 60 64" fill="none" xmlns="http://www.w3.org/2000/svg">
<path d="M54.0153 11.7202C56.6275 13.6994 59.0954 17.955 59.4455 21.2057L59.4486 21.2344C59.481 21.5312 60 26.3657 60 31.966C60 37.6139 59.4844 42.3739 59.4489 42.6948L59.445 42.7303C59.0925 45.9914 56.6788 50.2619 53.9892 52.2316L53.9854 52.2344C53.9203 52.2818 49.9361 55.1823 45 58.0829C40.2893 60.813 36.0606 62.7134 35.5192 62.954C35.4794 62.9717 35.4414 62.989 35.4018 63.0072C33.9551 63.6691 31.9776 64 30 64C28.0773 64 26.0865 63.6644 24.5695 62.9933L24.5118 62.9679C24.1274 62.8002 19.7528 60.8757 15 58.0829C10.2605 55.2979 6.39862 52.5129 6.04088 52.2535C6.02095 52.239 6.00427 52.2267 5.98466 52.2118C3.37253 50.2326 0.904571 45.977 0.554521 42.7263L0.551408 42.6976C0.518959 42.4008 0 37.5663 0 31.966C0 26.3181 0.515599 21.5581 0.551077 21.2372L0.554953 21.2017C0.906481 17.9502 3.30699 13.6952 5.98704 11.7179C6.00504 11.7046 6.02013 11.6937 6.03837 11.6808C6.38018 11.4384 10.2492 8.70877 15 5.91711C19.7107 3.18695 23.9394 1.2866 24.4808 1.04603C24.5206 1.02834 24.5586 1.01097 24.5982 0.992839C26.0449 0.330946 28.0224 0 30 0C31.9227 0 33.9135 0.335571 35.4305 1.00671L35.4882 1.0321C35.8726 1.19979 40.2472 3.12428 45 5.91711C49.7395 8.63734 53.6014 11.4193 53.9591 11.6785C53.979 11.693 53.9957 11.7053 54.0153 11.7202Z" fill="#EE3F58"/>
<path fill-rule="evenodd" clip-rule="evenodd" d="M41.9342 17.4226C42.0548 18.0657 41.6312 18.6847 40.9882 18.8053L34.8691 19.9526C34.8632 19.9836 34.8571 20.0146 34.8508 20.0456C34.4408 22.058 33.0749 24.048 30.5199 24.768V44.456H37.1799C37.8342 44.456 38.3645 44.9864 38.3645 45.6406C38.3645 46.2949 37.8342 46.8252 37.1799 46.8252L21.3851 46.8252C20.7308 46.8252 20.2004 46.2949 20.2004 45.6406C20.2004 44.9864 20.7308 44.456 21.3851 44.456H28.1506V25.0145C26.0577 24.8511 24.4644 23.6412 23.5164 22.1638C23.5007 22.1393 23.4851 22.1147 23.4697 22.09L18.0138 23.113C17.3708 23.2335 16.7518 22.81 16.6312 22.1669C16.5106 21.5239 16.9342 20.9049 17.5772 20.7843L40.5516 16.4766C41.1946 16.356 41.8136 16.7796 41.9342 17.4226ZM29.4602 22.5846C30.8326 22.3282 31.7367 21.5151 32.2138 20.5384L26.1534 21.671C26.9511 22.4095 28.0878 22.8411 29.4602 22.5846ZM41.7846 33.5359C41.1362 34.4083 40.0981 35.0414 38.702 35.0414C37.3058 35.0414 36.2677 34.4083 35.6193 33.5359H41.7846ZM32.458 31.1667C32.458 31.9305 32.6175 32.7501 32.9367 33.5359C33.7701 35.5882 35.6919 37.4107 38.702 37.4107C41.7121 37.4107 43.6338 35.5882 44.4673 33.5359C44.7863 32.7502 44.9459 31.9309 44.946 31.1671H44.9513L40.0712 22.6277L40.0539 22.5973L39.7297 22.0301L39.2262 21.149C38.9965 20.747 38.4168 20.7471 38.1872 21.1491L37.684 22.0304L37.3599 22.5977L37.3426 22.628L32.4662 31.1667H32.458ZM35.1945 31.1667L38.7072 25.016L42.2222 31.1667H35.1945ZM23.076 38.2192C22.4269 39.1218 21.3776 39.7768 19.9702 39.7768C18.5628 39.7768 17.5135 39.1218 16.8643 38.2192H23.076ZM13.7262 35.8499C13.7262 36.6138 13.8831 37.4328 14.1969 38.2192C15.0261 40.2967 16.9505 42.1461 19.9702 42.1461C22.9899 42.1461 24.9143 40.2967 25.7434 38.2192C26.0573 37.4328 26.2142 36.6138 26.2142 35.8499H23.845H16.0954H13.7262ZM18.6076 27.3105L18.6249 27.2801L18.9489 26.7128L19.4522 25.8316C19.6818 25.4296 20.2615 25.4295 20.4912 25.8315L20.9947 26.7125L21.3188 27.2798L21.3362 27.3101L26.2163 35.8496H23.4874L19.9722 29.6984L16.4592 35.8496H13.7309L18.6076 27.3105ZM27.7761 38.5843H27.7791L27.7761 38.5792V38.5843ZM46.5141 33.9018H46.5112V33.8967L46.5141 33.9018Z" fill="white"/>
</svg>
