<svg width="60" height="64" viewBox="0 0 60 64" fill="none" xmlns="http://www.w3.org/2000/svg">
<path d="M54.0153 11.7202C56.6275 13.6994 59.0954 17.955 59.4455 21.2057L59.4486 21.2344C59.481 21.5312 60 26.3657 60 31.966C60 37.6139 59.4844 42.3739 59.4489 42.6948L59.445 42.7303C59.0925 45.9914 56.6788 50.2619 53.9892 52.2316L53.9854 52.2344C53.9203 52.2818 49.9361 55.1823 45 58.0829C40.2893 60.813 36.0606 62.7134 35.5192 62.954C35.4794 62.9717 35.4414 62.989 35.4018 63.0072C33.9551 63.6691 31.9776 64 30 64C28.0773 64 26.0865 63.6644 24.5695 62.9933L24.5118 62.9679C24.1274 62.8002 19.7528 60.8757 15 58.0829C10.2605 55.2979 6.39862 52.5129 6.04088 52.2535C6.02095 52.239 6.00427 52.2267 5.98466 52.2118C3.37253 50.2326 0.904571 45.977 0.554521 42.7263L0.551408 42.6976C0.518959 42.4008 0 37.5663 0 31.966C0 26.3181 0.515599 21.5581 0.551077 21.2372L0.554953 21.2017C0.906481 17.9502 3.30699 13.6952 5.98704 11.7179C6.00504 11.7046 6.02013 11.6937 6.03837 11.6808C6.38018 11.4384 10.2492 8.70877 15 5.91711C19.7107 3.18695 23.9394 1.2866 24.4808 1.04603C24.5206 1.02834 24.5586 1.01097 24.5982 0.992839C26.0449 0.330946 28.0224 0 30 0C31.9227 0 33.9135 0.335571 35.4305 1.00671L35.4882 1.0321C35.8726 1.19979 40.2472 3.12428 45 5.91711C49.7395 8.63734 53.6014 11.4193 53.9591 11.6785C53.979 11.693 53.9957 11.7053 54.0153 11.7202Z" fill="#9455E4"/>
<path fill-rule="evenodd" clip-rule="evenodd" d="M18.0696 18.7179H22.0463V21.3688H18.0696C16.3621 21.3688 15.4187 22.572 15.4187 23.5377V27.1572H12.7678V23.5377C12.7678 20.8758 15.1415 18.7179 18.0696 18.7179ZM41.9276 42.5759H37.9516V45.2267H22.0463V42.5759H18.0696C16.3621 42.5759 15.4187 41.3728 15.4187 40.407V36.7968H12.7678V40.407C12.7678 43.0689 15.1415 45.2268 18.0696 45.2268H41.9276C44.8557 45.2268 47.2294 43.0689 47.2294 40.407V23.5377C47.2294 20.8758 44.8557 18.7179 41.9276 18.7179H37.9516V21.3688H41.9276C43.635 21.3688 44.5785 22.572 44.5785 23.5377V27.1572H47.2289V36.7968H44.5785V40.407C44.5785 41.3728 43.635 42.5759 41.9276 42.5759ZM31.3246 26.6698H28.6737V37.2733H31.3246V26.6698ZM24.6972 26.6699H22.0463V37.2735H24.6972V26.6699ZM35.3014 26.6698H37.9522V37.2733H35.3014V26.6698Z" fill="white"/>
</svg>
