<svg width="60" height="64" viewBox="0 0 60 64" fill="none" xmlns="http://www.w3.org/2000/svg">
<path d="M54.0153 11.7202C56.6275 13.6994 59.0954 17.955 59.4455 21.2057L59.4486 21.2344C59.481 21.5312 60 26.3657 60 31.966C60 37.6139 59.4844 42.3739 59.4489 42.6948L59.445 42.7303C59.0925 45.9914 56.6788 50.2619 53.9892 52.2316L53.9854 52.2344C53.9203 52.2818 49.9361 55.1823 45 58.0829C40.2893 60.813 36.0606 62.7134 35.5192 62.954C35.4794 62.9717 35.4414 62.989 35.4018 63.0072C33.9551 63.6691 31.9776 64 30 64C28.0773 64 26.0865 63.6644 24.5695 62.9933L24.5118 62.9679C24.1274 62.8002 19.7528 60.8757 15 58.0829C10.2605 55.2979 6.39862 52.5129 6.04088 52.2535C6.02095 52.239 6.00427 52.2267 5.98466 52.2118C3.37253 50.2326 0.904571 45.977 0.554521 42.7263L0.551408 42.6976C0.518959 42.4008 0 37.5663 0 31.966C0 26.3181 0.515599 21.5581 0.551077 21.2372L0.554953 21.2017C0.906481 17.9502 3.30699 13.6952 5.98704 11.7179C6.00504 11.7046 6.02013 11.6937 6.03837 11.6808C6.38018 11.4384 10.2492 8.70877 15 5.91711C19.7107 3.18695 23.9394 1.2866 24.4808 1.04603C24.5206 1.02834 24.5586 1.01097 24.5982 0.992839C26.0449 0.330946 28.0224 0 30 0C31.9227 0 33.9135 0.335571 35.4305 1.00671L35.4882 1.0321C35.8726 1.19979 40.2472 3.12428 45 5.91711C49.7395 8.63734 53.6014 11.4193 53.9591 11.6785C53.979 11.693 53.9957 11.7053 54.0153 11.7202Z" fill="#9CA8BA"/>
<path fill-rule="evenodd" clip-rule="evenodd" d="M34.4348 18.4375C35.1428 18.4375 35.7865 18.6954 36.2371 19.1467L41.7086 24.4338C42.2235 24.9497 42.481 25.5944 42.481 26.3037V44.873C42.481 46.2915 41.3223 47.452 39.9062 47.452H21.7539C20.3377 47.452 19.1791 46.2915 19.1791 44.873V21.0166C19.1791 19.5981 20.3377 18.4375 21.7539 18.4375H34.4348ZM35.3359 26.3037H39.9062L34.4991 21.1455V25.4655C34.4991 25.9168 34.8854 26.3037 35.3359 26.3037ZM21.7539 21.0166V44.873H39.9062V28.8827H35.3359C33.4692 28.8827 31.9243 27.3353 31.9243 25.4655V21.0166H21.7539ZM33.4052 31.1395C33.9201 30.6237 34.6926 30.6237 35.2075 31.1395C35.6581 31.6553 35.6581 32.429 35.1432 32.9448L27.805 40.2952C27.5475 40.5531 27.2257 40.682 26.9038 40.682C26.582 40.682 26.2601 40.5531 26.0026 40.2952C25.4877 39.7794 25.4877 39.0056 26.0026 38.4898L33.4052 31.1395ZM34.3704 40.7457C35.2948 40.7457 36.0441 39.9951 36.0441 39.0693C36.0441 38.1435 35.2948 37.3929 34.3704 37.3929C33.4461 37.3929 32.6968 38.1435 32.6968 39.0693C32.6968 39.9951 33.4461 40.7457 34.3704 40.7457ZM28.9637 32.1705C28.9637 33.0964 28.2143 33.8469 27.29 33.8469C26.3657 33.8469 25.6164 33.0964 25.6164 32.1705C25.6164 31.2447 26.3657 30.4941 27.29 30.4941C28.2143 30.4941 28.9637 31.2447 28.9637 32.1705Z" fill="white"/>
</svg>
