<svg width="60" height="64" viewBox="0 0 60 64" fill="none" xmlns="http://www.w3.org/2000/svg">
<path d="M54.0153 11.7202C56.6275 13.6994 59.0954 17.955 59.4455 21.2057L59.4486 21.2344C59.481 21.5312 60 26.3656 60 31.966C60 37.6139 59.4844 42.3739 59.4489 42.6948L59.445 42.7303C59.0925 45.9914 56.6788 50.2619 53.9892 52.2316L53.9854 52.2344C53.9203 52.2818 49.9361 55.1823 45 58.0829C40.2893 60.8131 36.0606 62.7134 35.5192 62.954C35.4794 62.9717 35.4414 62.989 35.4018 63.0072C33.9551 63.6691 31.9776 64 30 64C28.0773 64 26.0865 63.6644 24.5695 62.9933L24.5118 62.9679C24.1274 62.8002 19.7528 60.8757 15 58.0829C10.2605 55.2979 6.39863 52.5129 6.04088 52.2535C6.02095 52.239 6.00427 52.2267 5.98465 52.2118C3.37253 50.2326 0.904571 45.977 0.554521 42.7263L0.551408 42.6976C0.518959 42.4008 0 37.5663 0 31.966C0 26.3181 0.515599 21.5581 0.551077 21.2372L0.554953 21.2017C0.906481 17.9502 3.30699 13.6952 5.98704 11.7179C6.00504 11.7046 6.02013 11.6937 6.03837 11.6808C6.38018 11.4384 10.2492 8.70877 15 5.91711C19.7107 3.18695 23.9394 1.2866 24.4808 1.04603C24.5206 1.02834 24.5586 1.01097 24.5982 0.992838C26.0449 0.330946 28.0224 0 30 0C31.9227 0 33.9135 0.335571 35.4305 1.00671L35.4882 1.0321C35.8726 1.19979 40.2472 3.12428 45 5.91711C49.7395 8.63734 53.6014 11.4193 53.9591 11.6785C53.979 11.693 53.9957 11.7053 54.0153 11.7202Z" fill="#FFA51D"/>
<path fill-rule="evenodd" clip-rule="evenodd" d="M22.5873 17.0278H36.8974C37.3219 17.0278 37.6583 17.3859 37.6318 17.8095L35.9237 45.1404C35.8994 45.5282 35.5778 45.8304 35.1893 45.8304H24.2955C23.9069 45.8304 23.5853 45.5282 23.5611 45.1404L21.8529 17.8095C21.8264 17.3859 22.1628 17.0278 22.5873 17.0278ZM19.4399 17.9603C19.3264 16.1448 20.7682 14.61 22.5873 14.61H36.8974C38.7165 14.61 40.1583 16.1448 40.0449 17.9603L38.3367 45.2912C38.2328 46.9533 36.8545 48.2481 35.1893 48.2481H24.2955C22.6302 48.2481 21.2519 46.9533 21.148 45.2912L19.4399 17.9603ZM31.0044 23.5451C31.0044 24.2417 30.4396 24.8065 29.743 24.8065C29.0463 24.8065 28.4815 24.2417 28.4815 23.5451C28.4815 22.8484 29.0463 22.2836 29.743 22.2836C30.4396 22.2836 31.0044 22.8484 31.0044 23.5451ZM33.4221 23.5451C33.4221 25.577 31.7749 27.2242 29.743 27.2242C27.711 27.2242 26.0638 25.577 26.0638 23.5451C26.0638 21.5131 27.711 19.8659 29.743 19.8659C31.7749 19.8659 33.4221 21.5131 33.4221 23.5451ZM29.743 33.216C30.4396 33.216 31.0044 32.6512 31.0044 31.9546C31.0044 31.2579 30.4396 30.6931 29.743 30.6931C29.0463 30.6931 28.4815 31.2579 28.4815 31.9546C28.4815 32.6512 29.0463 33.216 29.743 33.216ZM29.743 35.6337C31.7749 35.6337 33.4221 33.9865 33.4221 31.9546C33.4221 29.9226 31.7749 28.2754 29.743 28.2754C27.711 28.2754 26.0638 29.9226 26.0638 31.9546C26.0638 33.9865 27.711 35.6337 29.743 35.6337ZM31.0044 40.3641C31.0044 41.0607 30.4396 41.6255 29.743 41.6255C29.0463 41.6255 28.4815 41.0607 28.4815 40.3641C28.4815 39.6674 29.0463 39.1026 29.743 39.1026C30.4396 39.1026 31.0044 39.6674 31.0044 40.3641ZM33.4221 40.3641C33.4221 42.396 31.7749 44.0432 29.743 44.0432C27.711 44.0432 26.0638 42.396 26.0638 40.3641C26.0638 38.3321 27.711 36.6849 29.743 36.6849C31.7749 36.6849 33.4221 38.3321 33.4221 40.3641Z" fill="white"/>
</svg>
