<svg width="115" height="64" viewBox="0 0 115 64" fill="none" xmlns="http://www.w3.org/2000/svg">
<g clip-path="url(#clip0_41_6992)">
<path fill-rule="evenodd" clip-rule="evenodd" d="M0.038208 0.00762939H114.759V63.9924H0.038208V0.00762939Z" fill="black"/>
<path fill-rule="evenodd" clip-rule="evenodd" d="M0 0.00790405H114.759V32.1912H0V0.00790405Z" fill="#CC2229"/>
<path fill-rule="evenodd" clip-rule="evenodd" d="M70.3088 45.0184C69.1995 43.9494 67.7841 42.461 64.7239 41.0485C65.1824 40.8576 65.9485 39.979 65.9857 39.4063C67.1715 39.5972 70.6531 41.6588 71.2656 42.6896C72.1827 44.7893 70.6148 45.4765 70.3088 45.0184ZM44.1056 36.1231C46.2095 37.7647 49.2697 38.8331 53.4775 38.91C57.6854 38.9869 62.8872 35.245 63.0025 29.9766C63.1178 24.7082 57.6854 19.8979 50.7998 19.8597V18.2944C51.4501 18.2944 52.1004 18.2181 52.789 18.3326L53.0185 17.5309C54.0513 17.6454 54.9694 17.7981 55.964 18.1417L55.658 18.8289C56.4225 19.0198 57.2263 19.3252 57.8766 19.7833L58.2591 19.1343C59.2532 19.6688 60.133 20.2415 60.9363 20.9286L60.4008 21.4631C61.1664 21.96 61.7019 22.5326 62.2757 23.1811L62.9637 22.6848C63.5417 23.512 63.9811 24.4274 64.2648 25.3954L63.385 25.6626C63.7282 26.3498 64.0348 27.037 64.1883 27.8387L65.1069 27.6478C65.3365 28.4877 65.5272 30.5111 65.4889 31.351L64.5331 31.3128C64.4949 31.9236 64.3796 32.3818 64.1118 32.8781L65.1441 33.2598C64.8392 34.1379 64.4561 34.9396 63.9206 35.6268L63.0408 35.1692C61.7407 36.9635 60.4778 38.4519 58.2974 39.4445L58.6794 40.1699C57.8384 40.628 56.882 40.8952 55.8875 41.0479L55.5432 40.2844C54.5486 40.5516 53.6305 40.6667 52.5977 40.5898L52.3682 41.4679C51.2206 41.5061 50.1495 41.277 49.1167 40.9711L49.4227 40.0166C48.5206 39.9362 47.6465 39.6628 46.8598 39.2149L46.4008 40.0166C45.4062 39.7494 44.5264 39.3676 43.7613 38.8713L44.2591 38.1083C43.7613 37.9174 43.3793 37.7647 43.035 37.3829L44.1056 36.1231ZM51.4501 27.4951L54.0131 29.5185L52.8272 26.5025L55.658 24.7082H52.33L51.4119 21.5777L50.5321 24.7082H47.2041L49.9965 26.4261L48.9254 29.5185L51.4501 27.4951ZM66.6365 40.2462C67.0196 40.2462 67.2874 40.5135 67.2874 40.8571C67.2874 41.2388 67.0196 41.5066 66.6365 41.5066C66.2923 41.5066 66.0245 41.2388 66.0245 40.8571C66.0233 40.7765 66.0384 40.6966 66.0687 40.622C66.0991 40.5473 66.1441 40.4795 66.2012 40.4226C66.2583 40.3656 66.3262 40.3207 66.401 40.2904C66.4757 40.2601 66.5558 40.2451 66.6365 40.2462ZM68.5104 41.3539C68.8934 41.3539 69.1612 41.6211 69.1612 41.9642C69.1612 42.3078 68.8934 42.6137 68.5104 42.6137C68.1672 42.6137 67.8606 42.3083 67.8606 41.9642C67.8611 41.6206 68.1672 41.3539 68.5104 41.3539ZM70.0793 42.6137C70.4236 42.6137 70.7301 42.881 70.7301 43.2627C70.7301 43.6058 70.4241 43.8736 70.0793 43.8736C69.7345 43.8736 69.4285 43.6058 69.4285 43.2627C69.4277 43.1773 69.4441 43.0925 69.4766 43.0134C69.509 42.9343 69.5569 42.8625 69.6175 42.8021C69.6781 42.7416 69.7501 42.6939 69.8294 42.6615C69.9087 42.6292 69.9936 42.613 70.0793 42.6137Z" fill="#FFF22D"/>
<path d="M59.7132 36.5049L61.3964 37.2302M57.3793 37.9938L59.4455 38.8719" stroke="black" stroke-width="0.3" stroke-miterlimit="2.613" stroke-linecap="round" stroke-linejoin="round"/>
<path fill-rule="evenodd" clip-rule="evenodd" d="M46.8598 27.1897C45.1767 28.1441 45.0619 30.6638 46.3243 31.9618C47.9309 34.0997 57.0733 37.9562 64.0736 40.6667C64.8769 40.8189 65.6042 39.8268 65.566 39.0633C64.0736 38.1847 61.2424 37.2303 60.0948 36.6194C56.6143 34.7869 51.9092 33.298 48.9255 30.3971C48.0074 29.4421 47.3188 28.6022 46.8598 27.1897Z" fill="#FFF22D"/>
<path d="M50.5703 33.4507C54.9694 35.9322 60.7073 38.4137 65.1069 40.0553" stroke="black" stroke-width="0.2" stroke-miterlimit="2.613" stroke-linecap="round" stroke-linejoin="round"/>
</g>
<defs>
<clipPath id="clip0_41_6992">
<rect width="114.759" height="64" rx="12" fill="white"/>
</clipPath>
</defs>
</svg>
