<svg width="33" height="32" viewBox="0 0 33 32" fill="none" xmlns="http://www.w3.org/2000/svg">
<mask id="mask0_2_1833" style="mask-type:alpha" maskUnits="userSpaceOnUse" x="0" y="0" width="33" height="32">
<path d="M12.8282 14.1428H8.30501C7.50001 14.1428 6.84668 13.4894 6.84668 12.6844V8.16244C6.84668 7.35743 7.50001 6.7041 8.30501 6.7041H12.8282C13.6332 6.7041 14.2865 7.35743 14.2865 8.16244V12.6856C14.2865 13.4906 13.6332 14.1428 12.8282 14.1428Z" stroke="#99B1E6" stroke-width="1.75" stroke-miterlimit="10" stroke-linecap="round" stroke-linejoin="round"/>
<path d="M24.6475 14.1428H20.1243C19.3193 14.1428 18.666 13.4894 18.666 12.6844V8.16244C18.666 7.35743 19.3193 6.7041 20.1243 6.7041H24.6475C25.4525 6.7041 26.1059 7.35743 26.1059 8.16244V12.6856C26.1059 13.4906 25.4537 14.1428 24.6475 14.1428Z" stroke="#99B1E6" stroke-width="1.75" stroke-miterlimit="10" stroke-linecap="round" stroke-linejoin="round"/>
<path d="M6.84668 24.503V19.9798C6.84668 19.1748 7.50001 18.5215 8.30501 18.5215H12.8282C13.6332 18.5215 14.2865 19.1748 14.2865 19.9798V24.503C14.2865 25.308 13.6332 25.9613 12.8282 25.9613H8.30501C7.50001 25.9613 6.84668 25.3092 6.84668 24.503Z" stroke="#99B1E6" stroke-width="1.75" stroke-miterlimit="10" stroke-linecap="round" stroke-linejoin="round"/>
<path d="M18.1565 21.2108L21.3543 18.0129C21.9237 17.4436 22.8477 17.4436 23.417 18.0129L26.6148 21.2108C27.1842 21.7801 27.1842 22.7041 26.6148 23.2734L23.417 26.4713C22.8477 27.0406 21.9237 27.0406 21.3543 26.4713L18.1565 23.2734C17.5872 22.7041 17.5872 21.7801 18.1565 21.2108Z" stroke="#99B1E6" stroke-width="1.75" stroke-miterlimit="10" stroke-linecap="round" stroke-linejoin="round"/>
</mask>
<g mask="url(#mask0_2_1833)">
<rect x="0.5" width="32" height="32" fill="#CC2229"/>
</g>
</svg>
