<svg width="25" height="24" viewBox="0 0 25 24" fill="none" xmlns="http://www.w3.org/2000/svg">
<path d="M1.25162 2.12674C1.1685 2.19555 1.10177 2.28069 1.05595 2.37639C1.01014 2.4721 0.986311 2.57613 0.986084 2.68144V23.2653C0.986084 23.4602 1.06678 23.647 1.21043 23.7848C1.35407 23.9226 1.5489 24 1.75204 24C1.95519 24 2.15001 23.9226 2.29366 23.7848C2.4373 23.647 2.518 23.4602 2.518 23.2653V17.7281C6.10268 14.9375 9.14098 16.3812 12.6465 18.0428C14.7044 19.0224 16.9218 20.073 19.2848 20.073C21.0171 20.073 22.8286 19.5098 24.718 17.9399C24.8013 17.8716 24.8683 17.787 24.9145 17.6917C24.9608 17.5965 24.9852 17.4928 24.9861 17.3877V2.68144C24.9862 2.54052 24.9441 2.40253 24.8648 2.28392C24.7855 2.16532 24.6722 2.0711 24.5386 2.0125C24.405 1.95391 24.2566 1.93341 24.1112 1.95344C23.9658 1.97348 23.8294 2.03322 23.7184 2.12552C20.0163 5.20147 16.9167 3.72839 13.3257 2.02266C9.76523 0.331625 5.70949 -1.57247 1.25162 2.12674ZM23.4542 17.0412C19.8695 19.833 16.8312 18.3881 13.3257 16.7252C10.101 15.1934 6.48694 13.4779 2.518 15.9183V3.02675C6.10268 0.23489 9.14098 1.6798 12.6465 3.34022C15.8712 4.87207 19.4852 6.5876 23.4542 4.15207V17.0412Z" fill="white"/>
</svg>
