<svg width="20" height="24" viewBox="0 0 20 24" fill="none" xmlns="http://www.w3.org/2000/svg">
<path d="M0.89225 1.41895L1.2267 0.635756C0.955567 0.478166 0.629784 0.526326 0.400918 0.757846C0.172052 0.989366 0.0850268 1.35878 0.180332 1.69424L0.89225 1.41895ZM3.24704 9.7073L2.53513 9.9826C2.62606 10.3027 2.86658 10.5333 3.15336 10.5755L3.24704 9.7073ZM19.0952 11.9994L19.4297 12.7826C19.6843 12.6346 19.8453 12.3313 19.8452 11.9994C19.8452 11.6676 19.6843 11.3643 19.4297 11.2163L19.0952 11.9994ZM0.89225 22.5811L0.180324 22.3058C0.0850268 22.6413 0.172061 23.0107 0.400935 23.2422C0.629818 23.4737 0.955593 23.5219 1.22672 23.3643L0.89225 22.5811ZM3.24674 14.2929L3.15305 13.4247C2.86627 13.4669 2.62575 13.6975 2.53482 14.0176L3.24674 14.2929ZM0.180332 1.69424L2.53513 9.9826L3.95894 9.432L1.60416 1.14365L0.180332 1.69424ZM19.4297 11.2163L1.2267 0.635756L0.557792 2.20213L18.7608 12.7826L19.4297 11.2163ZM1.22672 23.3643L19.4297 12.7826L18.7607 11.2163L0.557767 21.7979L1.22672 23.3643ZM2.53482 14.0176L0.180324 22.3058L1.60417 22.8564L3.95865 14.5682L2.53482 14.0176ZM8.63935 12.6189L3.15305 13.4247L3.34041 15.161L8.82672 14.3552L8.63935 12.6189ZM9.10717 12.0001C9.10717 12.3144 8.90669 12.5797 8.63935 12.6189L8.82672 14.3552C9.84406 14.2058 10.6072 13.1964 10.6072 12.0001H9.10717ZM8.63935 11.3812C8.90669 11.4205 9.10717 11.6857 9.10717 12.0001H10.6072C10.6072 10.8037 9.84415 9.7944 8.82672 9.6449L8.63935 11.3812ZM3.15336 10.5755L8.63935 11.3812L8.82672 9.6449L3.34072 8.8392L3.15336 10.5755Z" fill="#FFCB00"/>
</svg>
