<svg width="242" height="38" viewBox="0 0 242 38" fill="none" xmlns="http://www.w3.org/2000/svg">
<path d="M0 28.3939L2.98023e-06 9.60608L9.39392 14.8249V23.2272L16.9091 27.4545L24.4242 23.2272V14.8249L33.8182 9.60608V28.3939L16.9091 37.7878L0 28.3939Z" fill="black"/>
<path fill-rule="evenodd" clip-rule="evenodd" d="M4.69698 12.2156L0 9.6061L16.9091 0.212158L33.8182 9.6061L29.1212 12.2156V26.0455L16.9091 33.091L4.69697 26.0455L4.69698 12.2156ZM28.6124 12.4983L24.4242 14.825V14.7728L16.9091 10.5455L9.39392 14.7728V14.825L5.20581 12.4983V25.7565L16.9091 32.5084L28.6124 25.7565V12.4983Z" fill="url(#paint0_linear_47_15666)"/>
<g clip-path="url(#clip0_47_15666)">
<path d="M174.797 4.59112H159.066C158.934 4.59112 158.802 4.72332 158.802 4.85551C158.405 11.9939 157.083 19.661 155.1 25.874V26.1384C155.233 26.2706 155.233 26.2706 155.365 26.2706H160.785C160.917 26.2706 161.049 26.1384 161.049 26.1384C162.503 21.3795 163.825 15.0343 164.222 9.7466H169.377V26.1384C169.377 26.2706 169.509 26.4028 169.641 26.4028H174.797C174.929 26.4028 175.061 26.2706 175.061 26.1384V4.9877C175.061 4.72332 174.929 4.59112 174.797 4.59112ZM241.554 4.59112H236.398C236.266 4.59112 236.134 4.72332 236.134 4.85551V21.1151C234.944 21.5117 233.887 21.5117 232.565 21.5117C229.128 21.5117 228.335 20.4541 228.335 15.9596V4.9877C228.335 4.85551 228.202 4.72332 228.07 4.72332H222.915C222.783 4.72332 222.65 4.85551 222.65 4.9877V16.7528C222.65 24.1555 225.162 26.9315 231.507 26.9315C235.076 26.9315 239.174 26.0062 241.554 25.0809C241.686 25.0809 241.686 24.9487 241.686 24.8165V4.9877C241.818 4.72332 241.686 4.59112 241.554 4.59112ZM132.363 4.72332H127.076C126.943 4.72332 126.811 4.85551 126.811 4.85551C126.018 8.02811 124.3 13.448 122.052 19.1322L116.765 4.72332C116.765 4.59112 116.633 4.59112 116.5 4.59112H111.213C111.08 4.59112 111.08 4.72332 110.948 4.72332C110.816 4.85551 110.816 4.85551 110.948 4.9877L118.88 26.535C118.087 28.2535 117.293 29.5754 116.633 30.8973C116.104 31.8226 115.575 32.8802 115.046 33.8055C114.914 33.9377 115.046 33.9377 115.046 34.0699C115.178 34.2021 115.178 34.2021 115.311 34.2021H120.995C121.127 34.2021 121.127 34.0699 121.259 34.0699C122.185 32.2192 123.506 29.5754 124.564 26.9315C127.869 19.1322 130.645 11.7295 132.628 4.9877C132.628 4.85551 132.628 4.85551 132.496 4.72332H132.363ZM151.135 21.2473C151.135 21.1151 151.002 21.1151 151.002 21.1151H150.738C149.548 21.5117 147.169 22.0404 145.45 22.0404C141.881 22.0404 140.163 21.1151 140.163 15.563C140.163 11.2007 140.691 9.08564 145.45 9.08564C146.772 9.08564 148.094 9.21784 149.68 9.7466C149.813 9.7466 149.945 9.7466 150.077 9.61441C150.738 8.42469 151.399 7.10277 152.192 5.38428V5.11989C152.192 4.9877 151.928 4.85551 151.928 4.85551C149.813 4.19455 147.301 3.79797 145.054 3.79797C137.519 3.79797 134.214 7.23496 134.214 15.2987C134.214 23.3624 137.519 26.9315 145.054 26.9315C146.904 26.9315 150.606 26.535 152.456 25.7418C152.589 25.6096 152.589 25.6096 152.589 25.3452L151.135 21.2473ZM200.178 4.72332H194.89C194.758 4.72332 194.626 4.85551 194.626 4.85551C193.833 8.02811 192.114 13.448 189.867 19.1322L184.579 4.72332C184.579 4.59112 184.447 4.59112 184.315 4.59112H179.027C178.895 4.59112 178.895 4.72332 178.763 4.72332C178.63 4.85551 178.63 4.85551 178.763 4.9877L186.694 26.535C185.901 28.2535 185.108 29.4432 184.447 30.8973C183.918 31.8226 183.389 32.8802 182.861 33.8055C182.728 33.9377 182.861 33.9377 182.861 34.0699C182.993 34.2021 182.993 34.2021 183.125 34.2021H188.809C188.941 34.2021 188.941 34.0699 189.074 34.0699C189.999 32.2192 191.321 29.5754 192.378 26.9315C195.683 19.1322 198.459 11.7295 200.31 4.9877C200.31 4.85551 200.31 4.85551 200.178 4.72332ZM219.478 4.59112H204.276C204.143 4.59112 204.011 4.72332 204.011 4.85551V25.874C204.011 26.0062 204.143 26.1384 204.276 26.1384H209.431C209.563 26.1384 209.696 26.0062 209.696 25.874V9.61441H217.627C217.759 9.61441 217.891 9.48222 217.891 9.48222C218.552 8.02811 219.081 6.574 219.742 4.9877V4.72332C219.61 4.72332 219.478 4.59112 219.478 4.59112Z" fill="#EE3F58"/>
<path d="M76.3142 22.0405C72.8773 22.0405 71.8197 21.1151 71.8197 15.4309C71.8197 9.35004 73.0095 8.82127 76.3142 8.82127C79.619 8.82127 80.941 9.35004 80.941 15.4309C80.8088 21.2473 79.7512 22.0405 76.3142 22.0405ZM76.3142 3.93018C68.9115 3.93018 66.0033 7.10278 66.0033 15.2987C66.0033 23.6268 68.9115 26.7994 76.3142 26.7994C83.717 26.7994 86.7574 23.6268 86.7574 15.2987C86.7574 7.23497 83.717 3.93018 76.3142 3.93018ZM107.247 21.2473C107.247 21.1151 107.115 21.1151 107.115 21.1151H106.851C105.661 21.5117 103.281 22.0405 101.563 22.0405C97.9937 22.0405 96.2752 21.1151 96.2752 15.5631C96.2752 11.2007 96.804 9.08566 101.563 9.08566C102.885 9.08566 104.207 9.21785 105.793 9.74661C105.925 9.74661 106.057 9.74661 106.19 9.61442C106.851 8.4247 107.512 7.10278 108.305 5.38429V5.1199C108.305 4.98771 108.172 4.98771 108.172 4.98771C106.19 4.32675 103.546 4.06237 101.431 4.06237C93.8958 4.06237 90.591 7.49935 90.591 15.5631C90.591 23.6268 93.8958 27.1959 101.431 27.1959C103.281 27.1959 106.983 26.7994 108.833 26.0062C108.966 25.874 108.966 25.874 108.966 25.6096L107.247 21.2473ZM64.2848 4.59113H49.0827C48.9506 4.59113 48.8184 4.72333 48.8184 4.98771V26.0062C48.8184 26.1384 48.9506 26.2706 49.0827 26.2706H54.2382C54.3704 26.2706 54.5026 26.1384 54.5026 26.0062V9.61442H62.4341C62.5663 9.61442 62.5663 9.48223 62.6985 9.48223C63.3595 8.02812 64.0204 6.44182 64.5492 4.98771V4.72333C64.5492 4.72333 64.417 4.59113 64.2848 4.59113Z" fill="black"/>
</g>
<defs>
<linearGradient id="paint0_linear_47_15666" x1="4.69697" y1="7.51854" x2="30.0606" y2="7.51855" gradientUnits="userSpaceOnUse">
<stop stop-color="#CC2229"/>
<stop offset="0.307292" stop-color="#FFCB00"/>
<stop offset="0.604167" stop-color="#FFF22D"/>
<stop offset="1" stop-color="#CC2229"/>
</linearGradient>
<clipPath id="clip0_47_15666">
<rect width="193" height="30.4041" fill="white" transform="translate(48.8184 3.79797)"/>
</clipPath>
</defs>
</svg>
