<svg width="21" height="20" viewBox="0 0 21 20" fill="none" xmlns="http://www.w3.org/2000/svg">
<path fill-rule="evenodd" clip-rule="evenodd" d="M9.1501 0C4.5501 0 0.850098 3.6 0.850098 8.1C0.850098 12.6 4.5501 16.2 9.1501 16.2C10.8501 16.2 12.5501 15.7 13.9501 14.7L14.0501 14.6L19.1501 19.7C19.5501 20.1 20.1501 20.1 20.5501 19.7C20.7501 19.5 20.8501 19.3 20.8501 19C20.8501 18.7 20.7501 18.5 20.5501 18.3L15.4501 13.2L15.5501 13.1C16.8501 11.7 17.5501 9.8 17.5501 7.9C17.5501 3.6 13.7501 0 9.1501 0ZM9.1501 14.2C5.6501 14.2 2.8501 11.5 2.8501 8.1C2.8501 4.7 5.7501 1.9 9.2501 1.9C12.7501 1.9 15.6501 4.7 15.6501 8.1C15.6501 11.5 12.7501 14.2 9.1501 14.2Z" fill="black"/>
</svg>
